# xmcd
#
# Track frame offsets: 
#        150
#        19113
#        41978
#        58355
#        89671
#        121173
#        152120
#        180409
#        211853
#
# Disc length: 3233 seconds
#
# Revision: 0
# Processed by: cddbd v1.5.2PL0 Copyright (c) Steve Scherf et al.
# Submitted via: ExactAudioCopy v1.0b3
#
DISCID=7a0c9f09
DTITLE=Pet Shop Boys - Love Is A Bourgeois Construct
DYEAR=2013
DGENRE=Dance
TTITLE0=Love is a bourgeois construct (Nighttime radio edit)
TTITLE1=Entschuldigung!
TTITLE2=Get it online
TTITLE3=Love is a bourgeois construct (The Penelopes remix)
TTITLE4=Love is a bourgeois construct (Claptone remix)
TTITLE5=Love is a bourgeois construct (Little Boots Discothèque Edit)
TTITLE6=Love is a bourgeois construct (Dave Audé Big Dirty Dub)
TTITLE7=Love is a bourgeois construct (Claptone instrumental)
TTITLE8=Love is a bourgeois construct (Little Boots Discothèque Dub)
EXTD=
EXTT0=
EXTT1=
EXTT2=
EXTT3=
EXTT4=
EXTT5=
EXTT6=
EXTT7=
EXTT8=
PLAYORDER=
